<?xml version="1.0" encoding="UTF-8"?>
<svg viewBox="0 0 138 138" xmlns="http://www.w3.org/2000/svg">
<rect width="137.02" height="137.02" rx="20" fill="#009DDE"/>
<path d="m108.7 72.252v4.0174h-4.07v38.388h-4.069v-38.388h-3.918v-4.0174h12.057z" fill="#fff"/>
<path d="m83.308 110.79h4.0691v-34.52h-4.0691v34.52zm4.2198-38.537c1.0549 0 1.8084 0.4464 2.7127 1.3391 0.9042 0.8928 1.2056 1.7855 1.2056 2.6783v34.52c0 0.893-0.3014 1.786-1.2056 2.53-0.9043 0.893-1.8085 1.19-2.7127 1.19h-4.0691c-0.9043 0-1.8085-0.297-2.562-1.19-0.9043-0.893-1.2057-1.786-1.2057-2.53v-34.52c0-0.8928 0.3014-1.7855 1.2057-2.6783 0.9042-0.8927 1.8084-1.3391 2.562-1.3391h4.0691z" fill="#fff"/>
<path d="m66.355 110.79h4.0691v-16.664h-4.0691v16.664zm4.0691-20.533c2.562 0 4.0691 1.3391 4.0691 4.0174v16.516c0 0.893-0.3015 1.786-1.2057 2.679-0.9042 0.892-1.8085 1.339-2.7127 1.339h-7.9875v-42.555h10.7v4.0174h-6.6311v13.986h3.7677z" fill="#fff"/>
<path d="m49.403 91.298h4.0691v-15.028h-4.0691v15.028zm4.0691-19.045c1.0549 0 1.8084 0.4464 2.7127 1.3391 0.9042 0.8928 1.2056 1.7855 1.2056 2.6783v38.388h-4.069v-19.343h-3.9184v19.492h-4.0691v-38.538c0-0.8928 0.3014-1.7855 1.2057-2.6783 0.9042-0.8927 1.8085-1.3391 2.562-1.3391h4.3705z" fill="#fff"/>
<path d="m32.299 91.298h4.0691v-15.028h-4.0691v15.028zm0 4.0174v19.492h-4.0691v-42.555h7.9875c1.0549 0 1.8084 0.4464 2.7127 1.3391 0.9042 0.8928 1.2056 1.7855 1.2056 2.6783v15.028c0 2.5295-1.3563 4.0174-4.069 4.0174h-3.7677z" fill="#fff"/>
<path d="m98.008 56.737v-30.502h4.0695v34.52h-4.2202c0-1.0416 0.1507-2.3807 0.1507-4.0174zm-2.4113 7.886h13.198v-4.0174h-2.648v-38.388h-7.9878c-1.0549 0-2.1099 0.2976-2.8634 1.0416-0.7535 0.7439-1.055 1.7855-1.055 2.9758v30.502c0 1.3391-0.1507 2.3807-0.3014 2.6782-0.3014 0.744-1.0549 1.0416-1.9592 1.0416v4.1662h3.617z" fill="#fff"/>
<path d="m79.32 60.755h4.069v-34.52h-4.069v34.52zm4.069-38.537c1.055 0 1.8085 0.4464 2.7128 1.3392 0.9042 0.8927 1.2056 1.7855 1.2056 2.6782v34.52c0 0.8927-0.3014 1.7855-1.2056 2.5294-0.9043 0.8928-1.8085 1.1904-2.7128 1.1904h-4.069c-0.9043 0-1.8085-0.2976-2.562-1.1904-0.9043-0.8927-1.2057-1.7855-1.2057-2.5294v-34.52c0-0.8927 0.3014-1.7855 1.2057-2.6782 0.9042-0.8928 1.8084-1.3392 2.562-1.3392h4.069z" fill="#fff"/>
<path d="m63.344 41.263h4.0691v-15.028h-4.0691v15.028zm0 4.0174v19.492h-4.0691v-42.555h7.9875c1.0549 0 1.8085 0.4464 2.7127 1.3392 0.9042 0.8927 1.2057 1.7855 1.2057 2.6782v15.028c0 2.5295-1.3564 4.0174-4.0691 4.0174h-3.7677z" fill="#fff"/>
<path d="m46.616 60.755h4.0691v-34.52h-4.0691v34.52zm4.0691-38.537c1.055 0 1.8085 0.4464 2.7127 1.3392 0.9043 0.8927 1.2057 1.7855 1.2057 2.6782v34.52c0 0.8927-0.3014 1.7855-1.2057 2.5294-0.9042 0.8928-1.8084 1.1904-2.7127 1.1904h-4.0691c-0.9042 0-1.8084-0.2976-2.562-1.1904-0.9042-0.8927-1.2056-1.7855-1.2056-2.5294v-34.52c0-0.8927 0.3014-1.7855 1.2056-2.6782 0.9043-0.8928 1.8085-1.3392 2.562-1.3392h4.0691z" fill="#fff"/>
<path d="m28.231 64.623v-42.406h10.7v4.0174h-6.6311v38.388h-4.0691z" fill="#fff"/>
</svg>